<?xml version="1.0" standalone="no"?>
<!DOCTYPE svg PUBLIC "-//W3C//DTD SVG 20010904//EN"
 "http://www.w3.org/TR/2001/REC-SVG-20010904/DTD/svg10.dtd">
<svg version="1.0" xmlns="http://www.w3.org/2000/svg"
 width="992.000000pt" height="992.000000pt" viewBox="0 0 992.000000 992.000000"
 preserveAspectRatio="xMidYMid meet">
<metadata>
Created by potrace 1.11, written by Peter Selinger 2001-2013
</metadata>
<g transform="translate(0.000000,992.000000) scale(0.100000,-0.100000)"
fill="#000000" stroke="none">
<path d="M8112 9893 c-67 -35 -99 -108 -73 -171 6 -15 12 -37 14 -49 2 -12 6
-26 10 -29 4 -4 7 -17 7 -29 0 -11 5 -26 12 -33 7 -7 9 -12 5 -12 -3 0 -2 -12
4 -27 6 -16 13 -39 15 -52 18 -94 110 -149 192 -115 83 34 103 103 62 219 -11
33 -20 60 -20 60 1 0 -1 7 -4 15 -3 8 -15 48 -27 88 -24 84 -56 126 -102 140
-41 13 -62 12 -95 -5z"/>
<path d="M7885 9668 c-16 -5 -75 -25 -130 -45 -106 -37 -127 -44 -135 -44 -3
-1 -9 -4 -15 -9 -5 -4 -26 -11 -45 -15 -19 -4 -41 -11 -50 -16 -17 -8 -49 -21
-65 -24 -20 -5 -281 -97 -318 -112 -21 -9 -44 -16 -52 -16 -8 0 -15 -3 -15 -7
0 -4 -6 -7 -12 -8 -19 -1 -39 -7 -71 -20 -16 -7 -34 -12 -41 -12 -7 0 -16 -3
-20 -7 -4 -5 -11 -8 -14 -8 -11 -1 -56 -16 -77 -25 -23 -11 -135 -50 -150 -53
-5 -2 -14 -5 -20 -8 -5 -4 -22 -9 -37 -13 -15 -3 -40 -11 -55 -18 -15 -6 -34
-12 -41 -14 -8 -1 -21 -6 -30 -10 -9 -4 -19 -8 -22 -9 -3 -1 -12 -4 -20 -7 -8
-4 -24 -9 -35 -11 -11 -3 -65 -22 -120 -42 -55 -19 -154 -54 -220 -76 -66 -22
-129 -44 -140 -49 -28 -12 -166 -61 -190 -67 -11 -3 -27 -7 -35 -11 -8 -3 -17
-6 -20 -7 -3 -1 -14 -5 -25 -9 -33 -13 -50 -17 -51 -14 0 2 -8 -3 -17 -10 -9
-8 -21 -11 -26 -8 -5 4 -12 2 -15 -3 -3 -5 -18 -12 -33 -16 -16 -3 -77 -24
-138 -47 -60 -22 -115 -41 -122 -42 -7 -1 -16 -5 -19 -9 -4 -4 -13 -7 -20 -7
-7 0 -25 -5 -41 -11 -15 -6 -30 -11 -33 -11 -3 0 -27 -9 -55 -20 -27 -11 -54
-21 -60 -23 -5 -1 -17 -5 -25 -8 -18 -7 -176 -62 -310 -108 -52 -17 -117 -40
-145 -50 -27 -10 -122 -42 -210 -73 -88 -30 -217 -75 -287 -99 -71 -25 -128
-42 -128 -38 0 3 -4 1 -8 -4 -6 -9 -29 -18 -102 -40 -3 -1 -12 -4 -20 -8 -8
-3 -61 -22 -117 -41 -57 -20 -147 -52 -200 -70 -54 -19 -138 -49 -188 -65 -49
-17 -135 -47 -190 -66 -55 -20 -131 -47 -170 -60 -65 -21 -407 -141 -535 -186
-30 -11 -72 -19 -92 -17 -20 1 -39 0 -42 -2 -2 -3 -57 -3 -121 0 -64 3 -118 3
-120 0 -2 -3 -38 -3 -80 0 -42 3 -78 3 -80 0 -2 -3 -56 -3 -120 0 -64 3 -118
3 -120 0 -2 -3 -56 -3 -120 0 -64 3 -118 3 -120 0 -2 -3 -38 -3 -80 0 -42 3
-78 3 -80 0 -2 -3 -56 -3 -120 0 -64 3 -118 3 -120 0 -2 -3 -56 -3 -120 0 -64
3 -118 3 -120 0 -2 -3 -38 -3 -80 0 -42 3 -79 1 -82 -3 -3 -4 -10 -3 -17 2 -7
6 -16 8 -19 4 -4 -3 -31 -7 -60 -8 -61 -2 -117 -19 -172 -53 -48 -30 -126
-111 -132 -137 -2 -6 -12 -35 -23 -65 -19 -54 -19 -93 -20 -2825 0 -1978 3
-2781 11 -2810 37 -136 119 -221 255 -269 61 -21 4673 -22 4784 0 78 15 151
39 188 62 12 8 22 12 22 8 0 -3 8 2 18 12 10 9 32 28 48 42 90 75 137 199 137
364 0 102 -9 276 -18 336 -2 14 -7 50 -10 80 -3 30 -8 62 -10 70 -2 8 -7 31
-10 50 -5 30 -12 69 -29 155 -4 17 -18 74 -31 125 -2 8 -4 15 -5 15 -2 0 -5
15 -14 54 -14 63 -122 362 -161 446 -7 17 -24 53 -36 80 -12 28 -57 122 -99
210 -43 88 -77 162 -76 165 0 3 -9 20 -22 38 -13 17 -20 32 -15 32 4 0 2 4 -5
9 -7 4 -14 15 -16 23 -1 8 -9 27 -19 41 -9 15 -17 33 -17 40 0 8 -7 20 -15 27
-8 7 -15 17 -15 22 0 5 -19 48 -41 96 -66 138 -77 163 -119 278 -45 121 -89
273 -92 319 -1 17 -4 34 -7 40 -5 10 -7 18 -16 110 -10 99 -3 354 10 376 3 4
8 31 10 59 3 29 10 70 16 93 6 23 13 53 16 66 2 14 7 29 11 35 3 6 7 17 8 26
1 8 15 52 32 96 86 229 238 461 413 634 56 55 149 135 162 139 7 2 17 9 22 16
28 35 308 195 341 195 8 0 14 5 14 12 0 6 3 9 6 6 3 -3 33 5 67 19 68 28 188
64 227 68 14 2 25 4 25 5 0 2 9 4 20 5 11 2 34 5 50 8 17 4 53 9 80 13 28 3
53 8 58 11 4 2 7 0 7 -6 0 -7 8 -7 23 -2 18 6 282 8 282 1 0 -1 14 -3 30 -5
90 -12 152 -22 185 -30 14 -3 35 -8 48 -11 77 -16 300 -102 382 -147 333 -184
594 -454 754 -782 58 -120 127 -328 143 -430 2 -16 6 -41 9 -55 18 -95 25
-345 12 -450 -12 -91 -60 -298 -76 -325 -4 -5 -8 -21 -10 -35 -2 -14 -7 -29
-13 -35 -5 -5 -9 -15 -9 -23 0 -7 -9 -34 -21 -60 -11 -26 -24 -56 -29 -67 -5
-11 -27 -63 -50 -115 -23 -52 -46 -99 -51 -105 -5 -5 -9 -16 -9 -25 0 -9 -6
-22 -12 -29 -7 -6 -13 -15 -13 -19 -1 -12 -80 -167 -88 -173 -5 -3 -8 -9 -8
-13 0 -3 -29 -68 -65 -143 -67 -140 -87 -185 -84 -192 1 -2 -2 -7 -7 -10 -5
-3 -28 -55 -52 -116 -24 -60 -52 -128 -61 -150 -16 -37 -53 -143 -55 -155 0
-3 -4 -11 -8 -17 -5 -7 -6 -13 -3 -13 3 0 -1 -17 -9 -38 -17 -44 -72 -252 -80
-302 -3 -19 -10 -57 -15 -85 -20 -99 -18 -88 -36 -230 -19 -163 -22 -510 -4
-510 1 0 3 -10 6 -22 8 -47 53 -130 90 -168 81 -84 184 -129 329 -142 44 -5
456 -8 915 -7 766 1 839 3 884 19 102 36 178 105 225 204 l26 56 0 2795 c0
1537 -3 2807 -7 2822 -20 83 -78 163 -152 212 -64 42 -131 62 -221 65 -38 2
-73 5 -77 7 -3 2 -9 1 -11 -3 -3 -5 -58 -6 -122 -3 -64 3 -118 3 -120 0 -2 -3
-38 -3 -80 0 -42 3 -78 3 -80 0 -2 -3 -56 -3 -120 0 -64 3 -118 3 -120 0 -2
-3 -56 -3 -120 0 -64 3 -118 3 -120 0 -2 -3 -38 -3 -80 0 -42 3 -78 3 -80 0
-2 -3 -56 -3 -120 0 -64 3 -118 3 -120 0 -2 -3 -56 -3 -120 0 -64 3 -119 2
-120 -1 -2 -3 -29 -2 -60 1 -31 3 -58 3 -61 -1 -2 -4 -20 -3 -39 1 -19 4 -37
4 -40 0 -3 -4 -21 -4 -40 0 -19 4 -37 4 -40 0 -3 -4 -21 -4 -40 0 -19 4 -37 5
-39 1 -3 -4 -30 -4 -61 -1 -31 3 -58 4 -60 1 -1 -3 -56 -4 -120 -1 -64 3 -118
3 -120 0 -2 -3 -56 -3 -120 0 -64 3 -119 2 -120 -1 -2 -3 -29 -2 -60 1 -31 3
-58 3 -61 -1 -2 -4 -20 -3 -39 1 -19 4 -37 4 -40 0 -3 -4 -21 -4 -40 0 -19 4
-37 4 -40 0 -3 -4 -21 -4 -40 0 -19 4 -37 5 -39 1 -2 -3 -48 -4 -101 -1 -53 3
-98 3 -100 0 -2 -3 -74 -3 -160 0 -86 3 -158 3 -160 0 -2 -3 -47 -3 -100 0
-53 3 -99 2 -101 -1 -2 -4 -20 -3 -39 1 -19 4 -37 4 -40 0 -3 -4 -21 -4 -40 0
-19 4 -37 4 -40 0 -3 -4 -21 -4 -40 0 -19 4 -37 5 -39 1 -3 -4 -30 -4 -61 -1
-31 3 -58 4 -60 1 -1 -3 -56 -4 -120 -1 -64 3 -118 3 -120 0 -2 -3 -56 -3
-120 0 -64 3 -119 2 -120 -1 -2 -3 -29 -2 -60 1 -31 3 -58 3 -61 -1 -2 -4 -20
-3 -39 1 -19 4 -37 4 -40 0 -3 -4 -21 -4 -40 0 -19 4 -37 4 -40 0 -3 -4 -21
-4 -40 0 -19 4 -37 5 -39 1 -2 -3 -48 -4 -101 -1 -53 3 -98 3 -100 0 -2 -3
-74 -3 -160 0 -86 3 -158 3 -160 0 -2 -3 -47 -3 -100 0 -53 3 -99 2 -101 -1
-2 -4 -20 -3 -39 1 -19 4 -37 4 -40 0 -3 -4 -21 -4 -40 0 -19 4 -37 4 -40 0
-3 -4 -21 -4 -40 0 -20 5 -38 4 -41 -2 -4 -5 -10 -5 -18 1 -6 6 -18 6 -25 2
-8 -5 -26 -5 -42 -1 -15 5 -30 6 -32 3 -7 -6 -207 -6 -214 1 -3 3 -15 1 -25
-5 -16 -9 -19 -8 -16 2 3 8 27 21 54 30 27 8 56 18 64 22 8 3 42 15 75 26 33
11 146 49 250 86 105 36 246 86 315 110 69 24 144 50 168 59 23 8 42 12 42 8
0 -4 4 -2 8 3 6 8 261 102 297 109 6 1 15 4 20 8 6 3 39 15 75 26 36 11 124
41 195 67 108 39 165 58 205 70 3 1 19 7 35 14 17 7 37 14 45 16 8 2 47 15 85
28 302 107 451 159 460 161 8 2 57 19 125 44 8 3 17 6 20 7 79 24 97 30 105
35 9 7 77 31 100 36 6 1 82 28 170 59 235 84 260 92 265 93 7 1 36 10 58 19 9
3 19 7 22 8 3 1 14 5 25 9 11 4 31 12 45 16 14 4 34 11 45 16 11 4 25 8 30 10
6 1 69 23 140 49 72 26 137 48 145 50 8 2 17 4 20 5 3 1 8 2 13 1 4 0 7 4 7
10 0 5 5 7 10 4 6 -4 16 -2 23 3 7 6 28 14 47 20 19 6 100 34 180 62 132 47
207 72 220 74 5 1 60 22 95 36 11 5 70 25 130 45 61 20 119 40 130 45 11 4 68
25 128 45 59 21 107 38 107 39 0 2 -40 108 -47 126 -8 20 -12 32 -16 52 -2 10
-6 21 -10 24 -4 4 -7 15 -7 25 0 24 -10 28 -45 17z m1572 -2216 c13 -7 28 -22
35 -35 10 -17 12 -611 13 -2757 1 -1579 -2 -2746 -7 -2760 -5 -14 -19 -34 -31
-45 -21 -19 -36 -19 -856 -18 -834 1 -925 3 -944 22 -5 5 -15 7 -22 5 -13 -5
-74 59 -76 79 0 7 -2 21 -4 32 -6 28 -6 133 -1 240 7 125 16 205 41 369 6 37
8 46 20 99 3 12 7 34 10 48 9 52 75 269 111 366 20 54 37 103 38 108 1 6 12
32 24 59 12 27 22 50 22 52 0 4 35 81 77 172 15 31 27 59 28 62 1 3 27 56 58
119 31 63 57 120 57 128 0 7 4 13 9 13 5 0 16 17 24 38 8 20 47 102 85 182 69
143 112 236 112 244 0 2 8 21 17 42 9 22 17 41 18 44 0 3 17 55 38 115 20 61
39 125 42 144 3 19 10 41 14 50 5 9 7 24 6 34 -2 9 0 17 4 17 4 0 7 10 7 23 1
12 4 38 7 57 26 138 26 403 1 570 -4 25 -7 57 -8 73 0 15 -4 27 -7 27 -3 0 -6
6 -7 13 0 6 -3 23 -6 37 -3 14 -8 40 -11 58 -13 69 -86 267 -127 345 -10 20
-16 37 -12 37 4 0 1 8 -7 18 -8 9 -28 42 -44 72 -15 30 -41 74 -57 97 -15 23
-28 46 -28 52 0 6 -3 11 -7 11 -5 0 -19 17 -33 38 -49 75 -164 206 -254 291
-28 25 -60 55 -71 66 -12 12 -51 42 -86 69 -35 26 -72 54 -82 62 -9 8 -22 14
-27 14 -6 0 -10 5 -10 10 0 6 -4 10 -9 10 -5 0 -38 18 -74 40 -72 43 -247 132
-247 124 0 -2 -12 2 -27 9 -98 49 -337 110 -524 134 -66 9 -383 8 -459 0 -99
-11 -261 -46 -364 -78 -56 -17 -102 -31 -103 -30 -6 1 -223 -100 -263 -123
-25 -14 -57 -31 -72 -37 -16 -6 -28 -15 -28 -20 0 -5 -7 -9 -15 -9 -8 0 -15
-4 -15 -10 0 -5 -6 -10 -13 -10 -7 0 -23 -9 -35 -20 -12 -11 -25 -20 -31 -20
-5 0 -11 -3 -13 -7 -1 -5 -28 -27 -58 -50 -221 -167 -416 -402 -554 -666 -25
-49 -46 -95 -46 -103 0 -8 -4 -14 -10 -14 -5 0 -10 -8 -10 -18 0 -10 -3 -22
-7 -26 -4 -3 -8 -12 -10 -19 -1 -7 -14 -43 -28 -82 -23 -64 -51 -161 -61 -210
-2 -11 -8 -42 -14 -70 -16 -82 -19 -106 -27 -190 -8 -91 -7 -340 2 -382 4 -15
8 -46 10 -68 3 -22 9 -60 15 -85 6 -25 12 -54 14 -65 13 -69 82 -283 98 -302
6 -7 8 -13 5 -13 -11 0 57 -156 174 -395 43 -88 77 -162 76 -165 -1 -3 7 -18
19 -35 24 -36 48 -87 46 -97 -1 -5 3 -8 8 -8 6 0 10 -4 10 -9 0 -4 30 -71 66
-147 64 -134 87 -186 84 -192 0 -1 6 -15 13 -30 38 -72 102 -243 127 -339 10
-40 22 -78 25 -83 3 -6 8 -18 10 -27 2 -10 15 -70 29 -133 24 -105 29 -133 41
-225 20 -148 24 -206 27 -350 1 -102 -1 -127 -18 -159 -20 -41 -81 -82 -138
-94 -17 -3 -1079 -7 -2360 -9 -2163 -2 -2331 -1 -2358 14 -15 10 -32 31 -37
48 -6 18 -9 1123 -8 2761 2 2411 4 2733 17 2749 8 10 27 23 41 29 40 17 8956
15 8986 -2z"/>
<path d="M1546 5672 c-40 -5 -93 -47 -117 -93 -18 -36 -19 -63 -19 -489 0
-429 1 -453 20 -490 24 -46 63 -76 116 -87 21 -5 439 -8 929 -8 838 1 892 2
925 19 46 24 71 51 86 94 18 55 14 937 -5 972 -18 33 -72 81 -82 74 -5 -3 -9
-1 -9 3 0 8 -1778 12 -1844 5z"/>
<path d="M1627 4098 c-51 -11 -96 -34 -135 -72 -125 -117 -92 -342 62 -424 41
-21 61 -25 126 -25 76 0 123 18 174 66 49 48 75 93 81 142 3 19 5 38 6 42 1 4
1 10 0 13 -1 3 -3 21 -5 42 -7 96 -101 196 -200 214 -55 10 -70 10 -109 2z"/>
<path d="M2405 4103 c-11 -3 -27 -7 -35 -10 -8 -3 -21 -7 -28 -9 -35 -7 -104
-73 -129 -124 -23 -46 -28 -68 -28 -130 0 -70 3 -79 40 -134 35 -53 97 -105
118 -98 4 1 7 -3 7 -9 0 -6 7 -9 15 -6 8 4 17 2 20 -2 7 -13 115 -6 150 9 17
7 33 13 37 12 13 -3 88 79 110 120 27 52 30 163 5 218 -27 62 -119 144 -162
145 -5 0 -16 4 -23 9 -7 4 -16 6 -18 3 -3 -3 -18 -2 -32 2 -15 4 -36 6 -47 4z"/>
<path d="M3121 4081 c-58 -23 -122 -82 -145 -134 -22 -48 -31 -164 -14 -184 6
-7 7 -13 4 -13 -19 0 51 -99 90 -129 206 -156 489 43 412 289 -42 136 -217
222 -347 171z"/>
<path d="M6232 5276 c-207 -52 -413 -198 -540 -382 -50 -72 -105 -201 -129
-304 -31 -127 -35 -352 -9 -465 2 -11 9 -38 14 -60 28 -121 118 -280 215 -382
48 -50 176 -143 237 -171 78 -35 120 -52 132 -52 29 0 42 -20 44 -67 9 -171
14 -252 19 -297 3 -28 7 -71 10 -96 8 -80 15 -144 19 -195 3 -27 8 -84 12
-125 9 -98 12 -151 19 -350 3 -91 7 -187 8 -213 2 -27 -1 -51 -5 -53 -5 -3 -5
-10 -1 -17 3 -6 7 -74 8 -151 1 -144 15 -216 42 -216 7 0 13 -4 13 -9 0 -5 17
-13 39 -18 72 -19 153 29 163 97 6 40 1 456 -7 625 -4 83 -8 180 -9 217 0 38
-3 68 -6 68 -3 0 -6 8 -6 18 -1 29 -15 202 -19 220 -1 9 -6 52 -9 94 -4 42 -9
85 -10 95 -2 10 -7 74 -10 143 -4 69 -9 132 -11 140 -8 27 9 38 65 41 30 1 74
8 98 15 23 6 42 11 42 9 0 -2 30 7 68 19 135 46 247 115 350 215 35 33 61 61
57 61 -3 0 4 10 15 23 52 54 142 237 156 317 3 14 7 33 10 42 18 62 36 321 24
358 -1 3 -4 22 -6 43 -16 129 -84 282 -162 362 -64 66 -182 135 -236 139 -14
0 -26 4 -26 7 0 7 -126 3 -157 -5 -13 -3 -31 -8 -42 -10 -51 -12 -133 -65
-196 -130 -98 -99 -164 -226 -215 -411 -33 -116 -66 -282 -75 -375 -4 -36 -8
-78 -11 -95 -3 -25 -14 -183 -17 -262 -1 -30 -8 -29 -81 9 -54 29 -161 124
-207 184 -20 26 -80 152 -85 179 -2 11 -10 46 -18 77 -20 87 -14 276 13 363
23 73 61 158 74 163 4 2 7 9 7 15 0 12 22 41 83 107 30 32 88 77 162 124 l30
19 -17 -25 c-37 -56 -29 -158 13 -158 10 0 19 -4 19 -9 0 -11 43 -24 90 -27
32 -1 42 6 110 75 180 185 194 353 35 438 -39 21 -128 25 -193 9z m730 -534
c59 -38 88 -91 120 -217 13 -49 15 -236 4 -285 -3 -14 -8 -38 -12 -55 -25
-123 -95 -249 -187 -335 -37 -35 -167 -119 -174 -112 -2 1 -16 -4 -31 -11 -30
-16 -103 -33 -170 -41 l-43 -6 4 109 c3 60 8 115 12 122 6 8 4 10 -5 4 -8 -5
-11 -4 -6 3 3 6 9 32 11 59 3 26 7 64 10 83 3 19 7 55 10 80 7 50 13 85 15 85
1 0 3 14 5 30 5 44 33 149 58 214 11 31 20 59 19 64 -1 4 3 7 8 7 6 0 10 9 10
20 0 11 5 20 11 20 5 0 8 4 5 8 -5 9 44 85 82 125 26 28 87 61 127 69 26 6 71
-10 117 -40z"/>
<path d="M5686 1409 c-15 -4 -33 -12 -40 -18 -7 -6 -16 -8 -19 -4 -4 3 -7 2
-7 -4 0 -6 -13 -25 -29 -42 -33 -36 -48 -98 -36 -157 7 -41 92 -134 122 -134
10 0 -2 -11 -27 -24 -56 -28 -99 -94 -100 -151 -1 -64 1 -74 11 -80 5 -4 7
-11 4 -16 -4 -5 -1 -9 4 -9 6 0 11 -6 11 -12 1 -16 68 -68 89 -68 9 -1 4 -7
-13 -17 -118 -63 -144 -213 -53 -301 64 -62 32 -59 832 -58 667 1 733 3 761
18 44 24 94 76 94 98 0 10 4 21 8 24 14 9 6 90 -13 126 -20 39 -40 61 -78 85
l-29 19 30 15 c32 17 72 61 72 80 0 6 5 11 11 11 6 0 9 7 5 15 -3 8 -2 15 3
15 8 0 6 57 -3 95 -2 11 -5 23 -5 27 -2 16 -92 99 -101 93 -6 -3 -10 1 -10 9
0 8 8 17 18 20 16 5 84 62 82 68 -1 2 1 10 3 18 3 8 10 29 15 47 22 69 -17
155 -88 197 -34 20 -50 20 -766 21 -402 0 -743 -2 -758 -6z m1303 -251 c35
-25 61 -69 61 -104 0 -37 -36 -94 -70 -111 -19 -10 -151 -13 -555 -13 -508 0
-531 1 -562 20 -91 55 -87 163 8 212 21 11 132 13 560 13 486 0 536 -2 558
-17z m-290 -355 c47 -25 72 -61 74 -111 1 -44 -22 -86 -59 -106 -10 -6 -21
-14 -24 -17 -3 -3 -185 -5 -405 -5 -398 1 -400 1 -432 24 -43 31 -66 97 -47
140 14 35 39 64 69 80 13 7 147 11 405 12 349 0 388 -1 419 -17z"/>
<path d="M5960 200 c0 -8 57 -61 100 -92 57 -42 123 -74 182 -92 66 -19 300
-22 363 -5 50 14 126 49 143 66 7 7 19 13 25 13 14 0 127 98 127 110 0 4 -211
7 -470 7 -258 0 -470 -3 -470 -7z"/>
</g>
</svg>
