<svg xmlns="http://www.w3.org/2000/svg" viewBox="0 0 582.51 247.7">
  <path fill="#00b6cd" d="M297.36 90.5c0-2-1.77-2.88-3.66-2.88h-6.82v5.82h6.82c1.9 0 3.66-.9 3.66-2.94m-1.33 24.33l-5.1-11.64h-4.05v11.6h-11.2v-37h19.74c8.65 0 13.3 5.7 13.3 12.7 0 6.3-3.7 9.7-6.65 11.2l6.7 13zm34-26l-3.65 11.9h7.32zm8 26l-1.34-4.32h-13.3l-1.4 4.4h-12.7l13.6-37H337l13.65 37zm40.12-18.5c0-5-2.88-8.7-8.86-8.7h-5.4v17.45h5.3c5.6 0 8.9-4.1 8.9-8.76m-25.5 18.52V77.86h16.5c11.6 0 20.3 6.65 20.3 18.46 0 11.8-8.7 18.52-20.3 18.52zm40.8-36.98h11.2v36.97h-11.2zm44.3 18.52c0-5.16-3.5-9.26-8.9-9.26s-8.9 4.1-8.9 9.26c0 5.15 3.5 9.25 8.8 9.25 5.3 0 8.8-4.1 8.8-9.25m-29.1 0c0-11.37 8.8-19.13 20.2-19.13 11.4 0 20.2 7.76 20.2 19.13 0 11.36-8.8 19.12-20.3 19.12s-20.2-7.76-20.2-19.12"/>
  <path fill="#c9462c" d="M275.68 133.43h11.2v36.97h-11.2zm42.02 36.97l-13.63-18.73v18.73h-11.2v-36.97h11.53l12.86 17.52v-17.52h11.2v36.97zm13.92-5.2l5.82-8.32c2.77 2.66 6.93 4.76 11.92 4.76 2.1 0 4.1-.55 4.1-2 0-3.54-20.62.06-20.62-14.52 0-6.26 5.2-12.25 15.35-12.25 6 0 11.4 1.72 15.6 5.16l-6 7.93c-3.2-2.44-7.4-3.66-10.9-3.66-2.2 0-2.9.72-2.9 1.66 0 3.5 20.5.5 20.5 14.25 0 8.2-6.1 12.9-16 12.9-7.9 0-13.3-2.3-17.2-5.9m64-13.2c0-5.1-3.5-9.2-8.9-9.2s-8.9 4.1-8.9 9.3 3.5 9.3 8.8 9.3c5.3 0 8.8-4.1 8.8-9.3m-29.1 0c0-11.3 8.8-19.1 20.2-19.1 11.4 0 20.2 7.8 20.2 19.2s-8.85 19.1-20.26 19.1c-11.4 0-20.2-7.7-20.2-19.1m44.5 3.3v-21.8H422V155c0 3.55 2.36 6.38 6.96 6.38 4.55 0 6.9-2.82 6.9-6.36v-21.4h11.36v21.74c0 9.2-5.78 15.9-18.26 15.9-12.45 0-18.3-6.7-18.3-15.83m75.24 15.2v-22.2l-8.25 22.2h-5l-8.3-22.2v22.26h-11.2v-37h15.4l6.5 17.7 6.5-17.8H497v36.9zm17.2-36.96h11.2v36.95h-11.2zm14.35 31.75l5.8-8.3c2.8 2.64 6.9 4.74 11.9 4.74 2.1 0 4.1-.56 4.1-2 0-3.55-20.7.05-20.7-14.5.04-6.3 5.24-12.3 15.4-12.3 6.04 0 11.5 1.7 15.7 5.15l-6 7.9c-3.2-2.4-7.37-3.6-10.86-3.6-2.2 0-2.8.8-2.8 1.7 0 3.5 20.6.5 20.6 14.3 0 8.2-6.1 12.9-16 12.9-7.9 0-13.2-2.3-17.2-5.9m36.8 5.2v-37h28.1v9.8h-16.8v3.6H582v9.8h-16.4v4.1h16.87v9.8zm-320.6 29.1c0 1.3-1.1 2.3-2.3 2.3h-39.8c-1.6 0-4.6-.2-5.6-1.5-.7-.9-.9-2.4-.9-3.5 0-18.8 6.3-31.5 12.4-43.7 5.1-10.4 10-20.1 10-31.9 0-13.5-5.3-26.1-14.8-35.6S170.5 71 157.1 71s-26.06 5.2-35.56 14.7-14.8 22.1-14.8 35.55c0 12.1 4.9 21.9 10.2 32.3 6.1 12.1 12.4 24.6 12.4 43.4 0 1.4-.36 2.5-1.07 3.2-1.1 1.14-3.5 1.76-6.6 1.76H9.12c-1.23 0-2.27-1-2.27-2.3v-136c0-1.2 1.04-2.3 2.28-2.3h46.4l.06.2.5-.2h175.3c1.2 0 2.3 1.1 2.3 2.3zm-2.3-145.2H75.8l120.5-42-2.2-6.6L54.97 54.5H9.14C4.1 54.48 0 58.58 0 63.6v135.98c0 5.03 4.1 9.14 9.14 9.14h112.7c11.16 0 14.52-6.1 14.52-11.8 0-36.76-22.66-52.07-22.66-75.73 0-24 19.46-43.5 43.46-43.5s43.44 19.5 43.44 43.5c0 23-22.34 38.9-22.34 75.5 0 4.7 1.72 11.9 13.34 11.9h39.8c5.03 0 9.14-4.1 9.14-9.2V63.6c0-5.03-4.1-9.15-9.14-9.15"/>
  <path fill="#c9462c" d="M160.66 136.5c.65-2.02 2.62-8.14 7.23-8.28.3.05 1.6.3 2.8 1.36 1.9 1.66 2.9 4.68 2.9 8.74 0 5.5-1.8 10.08-5.1 13.2-2.8 2.62-6.6 4.12-10.6 4.25.2-7.95 1.1-14.56 2.6-19.26m-9.9-8.5c1.2 1.3 3.3 1.4 4.5.1 1.4-1.4 5.8-5.6 4.2-9.5-.8-1.8-2.6-3-4.9-3-4.4 0-19.8 5.7-19.8 23.8 0 12.4 7.6 19.9 16.5 22.2.1 5.2.6 10.2 1.1 14.7.2 2.5.5 4.9.6 7 .6 8.3.5 19.9.5 20 0 1.8 1.4 3.3 3.2 3.3h.02c1.8 0 3.24-1.4 3.25-3.2 0-.5.1-11.9-.5-20.4-.2-2.2-.4-4.6-.7-7.1-.46-4.1-.9-8.6-1.08-13.2 5.7-.14 11.02-2.3 15.02-6 4.7-4.4 7.18-10.6 7.18-17.94 0-12.54-7.8-16.3-11.97-16.54h-.2c-7.8 0-11.7 6.9-13.56 12.74-1.7 5.2-2.64 12-2.93 20.3-6.9-2.46-10.1-9.18-10.1-15.5 0-5.75 2-10.36 5.9-13.7 1.3-1.1 2.7-1.95 3.9-2.5l-.3.3c-1.3 1.22-1.34 3.3-.1 4.6m6.5 119.64c4.8 0 9.1-2.1 11.97-5.5H145c2.9 3.4 7.2 5.5 11.98 5.5m12.3-23.6h-25.1c-1.7 0-3.06-1.4-3.06-3.1 0-1.6 1.4-3 3.1-3h25.14c1.7 0 3.08 1.4 3.08 3.06 0 1.7-1.4 3.1-3.06 3.1m-7 9.15h-18c-1.77 0-3.2-1.4-3.2-3.2 0-1.7 1.43-3.2 3.2-3.2h18c1.73 0 3.2 1.5 3.2 3.2 0 1.8-1.47 3.2-3.2 3.2m16.5-16.62c0-2.6-2.1-4.7-4.7-4.7h-34.5c-2.6 0-4.7 2.1-4.7 4.7 0 2.2 1.6 4.1 3.72 4.6-2.2.4-3.8 2.3-3.8 4.6 0 2.1 1.4 3.84 3.3 4.45-1.9.6-3.3 2.4-3.3 4.5 0 2.57 2.1 4.7 4.7 4.7h34.5c2.54 0 4.7-2.1 4.7-4.7 0-2.1-1.4-3.9-3.3-4.5 1.9-.6 3.3-2.4 3.3-4.5 0-2.3-1.67-4.2-3.8-4.6 2.12-.44 3.74-2.34 3.74-4.6m-99.6-111H35.9c-2.3 0-4.2 1.88-4.2 4.2V131c0 2.3 1.9 4.2 4.2 4.2h43.7c2.3 0 4.18-1.9 4.18-4.2v-21c0-2.35-1.88-4.2-4.2-4.2M38.4 145.2c-3.7 0-6.67 3-6.67 6.67 0 3.68 2.98 6.66 6.66 6.66 3.6 0 6.6-2.98 6.6-6.66s-3-6.67-6.7-6.67m19.3 0c-3.7 0-6.7 3-6.7 6.65 0 3.68 2.9 6.66 6.6 6.66 3.7 0 6.6-2.9 6.6-6.6s-3-6.6-6.7-6.6m19.4 0c-3.7 0-6.7 3-6.7 6.7s3 6.7 6.6 6.7c3.7 0 6.7-2.9 6.7-6.6s-3-6.6-6.7-6.6M199 11.5c.6 1.8 2.5 2.8 4.3 2.2 1.8-.5 2.77-2.4 2.2-4.2l-2.1-6.8c-.5-1.8-2.43-2.8-4.2-2.2-1.8.58-2.77 2.5-2.2 4.28z"/>
</svg>
